HIERARCHY
ROOT Hips
{
	OFFSET 0.000000 0.000000 0.000000 
	CHANNELS 6 Xposition Yposition Zposition Yrotation Zrotation Xrotation 
	JOINT Lumbar
	{
		OFFSET 0.000000 0.000000 0.000000 
		CHANNELS 3 Zrotation Xrotation Yrotation
		JOINT Neck
		{
			OFFSET 0.000000 0.445665 0.000000 
			CHANNELS 3 Zrotation Xrotation Yrotation
			End Site
			{
				OFFSET 0.000000 0.227535 0.000000 
			}
		}
		JOINT RightShoulder
		{
			OFFSET 0.019635 0.377685 0.194865 
			CHANNELS 3 Zrotation Xrotation Yrotation
			JOINT RightElbow
			{
				OFFSET 0.000000 -0.243375 0.000000 
				CHANNELS 2 Zrotation Yrotation
				JOINT RightWrist
				{
					OFFSET 0.000000 -0.264825 0.000000 
					CHANNELS 2 Zrotation Xrotation
					End Site
					{
						OFFSET 0.006600 -0.176220 0.000990 
					}
				}
			}
		}
		JOINT LeftShoulder
		{
			OFFSET 0.019635 0.377685 -0.194865 
			CHANNELS 3 Zrotation Xrotation Yrotation
			JOINT LeftElbow
			{
				OFFSET 0.000000 -0.243375 0.000000 
				CHANNELS 2 Zrotation Yrotation
				JOINT LeftWrist
				{
					OFFSET 0.000000 -0.264825 0.000000 
					CHANNELS 2 Zrotation Xrotation
					End Site
					{
						OFFSET 0.006600 -0.176220 -0.000990 
					}
				}
			}
		}
	}
	JOINT RightHip
	{
		OFFSET 0.052140 -0.069960 0.075570 
		CHANNELS 3 Zrotation Xrotation Yrotation
		JOINT RightKnee
		{
			OFFSET 0.000000 -0.402270 0.000000 
			CHANNELS 1 Zrotation
			JOINT RightAnkle
			{
				OFFSET 0.000000 -0.404085 0.000000 
				CHANNELS 3 Zrotation Xrotation Yrotation
				End Site
				{
					OFFSET 0.204105 -0.089430 0.008415 
				}
			}
		}
	}
	JOINT LeftHip
	{
		OFFSET 0.052140 -0.069960 -0.075570 
		CHANNELS 3 Zrotation Xrotation Yrotation
		JOINT LeftKnee
		{
			OFFSET 0.000000 -0.402270 0.000000 
			CHANNELS 1 Zrotation
			JOINT LeftAnkle
			{
				OFFSET 0.000000 -0.404085 0.000000 
				CHANNELS 3 Zrotation Xrotation Yrotation
				End Site
				{
					OFFSET 0.204105 -0.089430 -0.008415 
				}
			}
		}
	}
}
MOTION
Frames: 11
Frame Time: 0.02
0.0089 -0.03994 -0.06887 185.12595 -25.37782 2.59488 41.81474 1.55299 -13.94792 -26.63995 -5.48244 -2.11983 20.50149 -67.01013 24.20823 106.86565 98.46185 18.69416 4.39611 -41.4845 28.10154 11.28753 78.91353 -115.88742 13.04213 -5.37651 39.1612 -5.28835 -16.13999 -41.30183 -6.27989 -2.97029 -3.6409 28.9315 14.94333 0.47229 -34.90156 -9.39769 2.85416 3.75804
0.0084 -0.0369 -0.0731 185.33559 -25.46568 2.63311 41.69096 1.56914 -13.92777 -26.51407 -5.31955 -2.11983 20.84008 -66.27374 23.31154 107.03016 98.69726 18.25736 3.82618 -41.48014 27.65002 11.2244 77.86585 -112.68004 12.27285 -4.7951 38.60304 -4.83194 -16.1905 -39.93558 -6.32438 -2.97434 -3.64817 29.05004 15.11233 0.34318 -34.41028 -9.7067 2.80046 3.74569
0.00822 -0.03412 -0.07714 185.60083 -25.46471 2.66175 41.44889 1.59257 -13.91273 -26.40015 -5.11405 -2.11983 20.75578 -65.40261 21.93243 107.27467 99.12124 17.87519 2.97126 -41.4595 27.22096 11.11657 76.829 -107.29995 10.94917 -3.83181 37.96791 -4.36848 -16.20624 -38.57708 -6.37237 -2.9801 -3.65832 29.16855 15.26618 0.16276 -34.0208 -10.02585 2.74828 3.73431
0.00792 -0.03124 -0.08124 185.83938 -25.51468 2.69429 41.26854 1.61343 -13.89157 -26.28448 -4.92112 -2.11983 20.8554 -64.55381 20.74962 107.47421 99.35675 17.41035 2.26108 -41.44667 26.77594 11.02593 75.77792 -103.06069 9.90361 -3.07137 37.38421 -3.91355 -16.24872 -37.22344 -6.4186 -2.98425 -3.6666 29.30608 15.43043 0.02752 -33.59882 -10.33699 2.69522 3.72232
0.0075 -0.02828 -0.08546 186.08639 -25.52181 2.72913 41.05629 1.63093 -13.88633 -26.15479 -4.7549 -2.11983 20.98119 -63.86926 19.65508 107.71004 100.00763 17.18747 1.48517 -41.42779 26.35492 10.94813 74.76603 -98.21371 8.75862 -2.19387 36.73365 -3.43541 -16.24474 -35.8348 -6.46569 -2.99215 -3.6773 29.36835 15.5847 -0.19148 -33.12209 -10.66313 2.64132 3.71027
0.0074 -0.02554 -0.08939 186.32767 -25.5953 2.75687 40.8807 1.65746 -13.84818 -26.05586 -4.52481 -2.11983 20.95737 -62.80902 18.26755 107.8888 99.85505 16.47865 0.77889 -41.41945 25.8889 10.83303 73.67477 -94.10016 7.68597 -1.46639 36.20166 -3.00392 -16.32649 -34.51999 -6.51191 -2.99271 -3.6837 29.58428 15.75324 -0.25077 -32.78271 -10.95979 2.59047 3.699
0.00812 -0.02329 -0.09264 186.54413 -25.88751 2.76627 40.84845 1.70459 -13.73022 -26.04749 -4.11441 -2.11983 20.59902 -60.76596 16.16576 107.89716 97.31625 14.36465 0.33682 -41.44296 25.29919 10.6265 72.36735 -92.55723 6.93537 -1.25351 36.03421 -2.7071 -16.68937 -33.41758 -6.55318 -2.9708 -3.67651 30.23977 15.97749 0.13405 -32.79226 -11.17707 2.54345 3.68786
0.00915 -0.02125 -0.09561 186.75182 -26.24721 2.76904 40.85501 1.76095 -13.57679 -26.06795 -3.64368 -2.11983 20.11019 -58.34751 13.79345 107.84461 93.9862 11.77023 -0.02535 -41.47883 24.6628 10.38384 70.97966 -91.82021 6.27812 -1.20276 35.98575 -2.4571 -17.13369 -32.38798 -6.59367 -2.94171 -3.66503 31.04689 16.21353 0.68122 -32.9368 -11.36321 2.50028 3.67781
0.01004 -0.01912 -0.09868 186.96012 -26.56654 2.77546 40.83464 1.81486 -13.43181 -26.06956 -3.21046 -2.11983 19.69841 -56.08471 11.55797 107.81502 91.09896 9.42626 -0.42553 -41.50995 24.04344 10.15749 69.62381 -90.69845 5.58422 -1.07225 35.86996 -2.18282 -17.5175 -31.31746 -6.63561 -2.91702 -3.65614 31.77361 16.43565 1.15971 -33.02281 -11.5609 2.45843 3.66862
0.01095 -0.01699 -0.10188 187.18437 -26.92253 2.77876 40.84792 1.86198 -13.31968 -26.09598 -2.73434 -2.11983 19.1971 -53.8728 9.23674 107.80625 87.86629 6.94239 -0.82919 -41.53522 23.44093 9.93038 68.28389 -89.57584 4.844 -0.95368 35.80511 -1.91995 -17.99858 -30.27759 -6.67322 -2.88765 -3.6447 32.54745 16.69436 1.61749 -33.10139 -11.77091 2.40414 3.65403
0.01188 -0.01489 -0.10473 187.3729 -27.22084 2.78723 40.8037 1.92493 -13.13024 -26.07728 -2.33228 -2.11983 18.85643 -51.47687 7.04895 107.74098 85.1634 4.64293 -1.20206 -41.5778 22.79394 9.69639 66.89667 -88.67934 4.23314 -0.85433 35.66638 -1.64578 -18.29767 -29.19441 -6.71945 -2.86625 -3.63748 33.26098 16.87873 2.15454 -33.22509 -11.94654 2.37604 3.65056
